<svg width="32" height="32" viewBox="0 0 21 21" fill="none" xmlns="http://www.w3.org/2000/svg">
  <circle cx="10.5" cy="10.5" r="10.5" fill="#0B5D6B"/>
  <g transform="translate(2.5 2.5) scale(0.7619)">
    <path d="M5.77246 5.50293C5.93496 5.09898 6.50251 5.09892 6.66504 5.50293L9.62988 12.8535C9.84943 13.3955 9.84952 14.002 9.62988 14.5439L7.52246 19.7725C7.43505 19.9904 7.28427 20.1769 7.08984 20.3086C6.89546 20.4402 6.66638 20.5114 6.43164 20.5117H0.701172C0.230068 20.5116 -0.0901742 20.0358 0.0869141 19.5977L3.35352 11.5L5.77246 5.50293Z" fill="white"/>
    <path d="M8.98511 0.0380859H14.7117C14.9465 0.0383146 15.1764 0.108563 15.3708 0.240234C15.5652 0.37188 15.7161 0.558493 15.8035 0.776367L20.6726 12.8564C20.8923 13.3985 20.8924 14.0049 20.6726 14.5469L20.6521 14.5986H20.655L18.5681 19.7725C18.4808 19.9902 18.3307 20.177 18.1365 20.3086C17.942 20.4402 17.7121 20.5115 17.4773 20.5117H11.7507C11.2794 20.5117 10.9593 20.0359 11.1365 19.5977L13.1619 14.5752C13.3889 14.015 13.3889 13.3883 13.1619 12.8281L8.37085 0.951172C8.19375 0.512976 8.51672 0.0380859 8.98511 0.0380859Z" fill="white"/>
  </g>
</svg>
