<svg width="97" height="21" viewBox="0 0 97 21" fill="none" xmlns="http://www.w3.org/2000/svg">
<path d="M36.2092 2.33203C37.5681 2.33203 38.7694 2.62088 39.8167 3.20117C40.5225 3.59228 41.1284 4.08081 41.636 4.66699V4.66992L41.6467 4.68066L41.6506 4.68359L41.6819 4.6543H41.7112V2.70117H45.7268V20.5146H41.7112V18.4902L41.6448 18.5674C41.1438 19.1476 40.5406 19.6314 39.8352 20.0166C38.7756 20.5942 37.5652 20.8867 36.2092 20.8867C34.6039 20.8867 33.1554 20.4801 31.8606 19.6641C30.5653 18.8476 29.54 17.7421 28.7883 16.3438C28.0338 14.9458 27.6585 13.4057 27.6584 11.6475C27.6584 9.88895 28.0338 8.31195 28.7883 6.91406C29.5401 5.51851 30.566 4.40375 31.8616 3.5752C33.1563 2.74728 34.6042 2.33207 36.2092 2.33203ZM36.8831 6.12891C35.8868 6.12891 35.0038 6.36119 34.2424 6.8252C33.5767 7.23092 33.0348 7.77434 32.6165 8.45703L32.4446 8.75781C32.0097 9.58393 31.7913 10.5341 31.7913 11.6074C31.7913 12.6807 32.0065 13.6317 32.4446 14.458C32.8793 15.2836 33.4787 15.927 34.2424 16.3906C35.0038 16.8546 35.8868 17.0859 36.8831 17.0859C38.4048 17.0858 39.6348 16.5742 40.5725 15.5459L40.6301 15.4824H40.6243C41.5241 14.4641 41.9739 13.1719 41.9739 11.6074C41.9738 10.5344 41.7649 9.58397 41.3391 8.75781C40.9134 7.93205 40.3197 7.28886 39.5588 6.8252C38.7974 6.36113 37.8789 6.12897 36.8831 6.12891Z" fill="white" stroke="white" stroke-width="0.0755396"/>
<path d="M36.2095 2.33113C37.5261 2.33113 38.6945 2.60254 39.7184 3.14726L39.8171 3.20089C40.5231 3.59204 41.1283 4.08093 41.6361 4.66727V4.66923L41.6471 4.68018L41.6502 4.68321L41.6822 4.65359H41.7117V2.70029H45.7269V20.514H41.7117V18.4894L41.6453 18.5663C41.1598 19.1286 40.5786 19.6008 39.9012 19.9799L39.8353 20.0164C38.7757 20.594 37.5654 20.8863 36.2095 20.8863C34.6291 20.8863 33.2013 20.4921 31.922 19.7015L31.8611 19.6635C30.6061 18.8726 29.6049 17.8103 28.8601 16.4733L28.7888 16.343L28.7887 16.343L28.7538 16.2773C28.0226 14.8967 27.6582 13.3774 27.6582 11.6464C27.6582 9.91538 28.0227 8.36093 28.7538 6.97931L28.7887 6.91359H28.7888C29.5289 5.5399 30.5338 4.43831 31.8008 3.61387L31.8613 3.57481C33.1562 2.74667 34.6042 2.33105 36.2095 2.33105V2.33113ZM36.8827 6.12873C35.9175 6.12873 35.0592 6.34598 34.3143 6.78139L34.2426 6.82422C33.5056 7.27338 32.92 7.89145 32.4862 8.68038L32.4446 8.75721L32.4445 8.75728C32.0096 9.58346 31.7911 10.5338 31.7911 11.6072C31.7912 12.647 31.9933 13.5713 32.4042 14.3794L32.4446 14.4572C32.8793 15.283 33.4788 15.9266 34.2427 16.3903V16.3902C35.004 16.8541 35.8864 17.0856 36.8827 17.0856C38.4047 17.0856 39.6349 16.5737 40.5727 15.5452L40.6303 15.482H40.6262C41.5256 14.4638 41.9743 13.1712 41.9743 11.6072C41.9743 10.5676 41.7779 9.64336 41.3784 8.83539L41.3392 8.75758C40.9267 7.95747 40.3569 7.32837 39.6299 6.86819L39.5592 6.82422C38.7975 6.36011 37.8787 6.12873 36.8827 6.12873Z" fill="white" stroke="white" stroke-width="0.0755396"/>
<path d="M56.8083 2.32812C57.6903 2.32816 58.4875 2.48626 59.198 2.80469V2.80566L59.2107 2.81152C59.9145 3.12866 60.5718 3.63773 61.1814 4.34082L58.5554 7.04395C58.2771 6.75083 57.9726 6.52883 57.6404 6.37988L57.4919 6.31836L57.3376 6.26562C56.9714 6.15042 56.5589 6.0918 56.1013 6.0918C54.9515 6.09185 54.0002 6.45597 53.2498 7.18359C52.4969 7.91674 52.1238 9.05711 52.1238 10.6025V20.5137H48.1091V2.70312H52.1238V4.66309L52.1931 4.5625C52.2103 4.53738 52.2261 4.51147 52.241 4.4873L52.2859 4.41797C53.2798 3.02578 54.7863 2.32812 56.8083 2.32812Z" fill="white" stroke="white" stroke-width="0.0755396"/>
<path d="M56.8081 2.32812C57.6915 2.32812 58.4901 2.48676 59.2015 2.80614L59.2044 2.80916L59.2108 2.81203C59.9147 3.12922 60.5729 3.6373 61.1826 4.3405L58.5563 7.04414C58.2471 6.71833 57.9049 6.48091 57.5291 6.33331L57.4916 6.31888H57.4915C57.088 6.16871 56.6245 6.09249 56.1017 6.09249C54.9698 6.09249 54.0298 6.4445 53.2849 7.14959L53.2495 7.18351C52.4967 7.91662 52.1241 9.05719 52.1241 10.6027V20.5141H48.1089V2.70341H52.1241V4.66351L52.193 4.56304C52.2103 4.53788 52.2259 4.5119 52.2408 4.48765C52.2522 4.46922 52.2631 4.45169 52.2744 4.43507L52.2859 4.41876L52.2862 4.41838C53.2801 3.02619 54.786 2.3282 56.8081 2.3282V2.32812Z" fill="white" stroke="white" stroke-width="0.0755396"/>
<path d="M66.0713 2.7002L70.9375 14.1152L70.9717 14.1963L71.0068 14.1152L75.9004 2.7002H80.167L72.0586 20.5107H69.7285L61.6201 2.7002H66.0713Z" fill="white" stroke="white" stroke-width="0.0755396"/>
<path d="M66.0711 2.7002L70.9369 14.1153L70.9715 14.1966L71.0064 14.1154L75.8998 2.7002H80.1663L72.0584 20.511H69.7279L61.6201 2.7002H66.0711Z" fill="white" stroke="white" stroke-width="0.0755396"/>
<path d="M87.136 2.32812C88.4946 2.32816 89.696 2.61684 90.7434 3.19727C91.4549 3.59154 92.0638 4.08518 92.5745 4.67773L92.6409 4.75488V2.7002H96.6526V20.5107H92.6379V18.4863L92.5715 18.5635C92.0701 19.1438 91.4672 19.6276 90.762 20.0127C89.7023 20.5903 88.4915 20.8828 87.136 20.8828C85.5307 20.8828 84.0818 20.4761 82.7874 19.6602C81.4916 18.8437 80.4667 17.7382 79.7151 16.3398C78.9607 14.9418 78.5843 13.4019 78.5842 11.6436C78.5842 9.88498 78.9607 8.30812 79.7151 6.91016C80.4668 5.51478 81.4915 4.39978 82.7874 3.57129C84.0818 2.74319 85.5309 2.32812 87.136 2.32812ZM87.8059 6.12891C86.8095 6.12891 85.9266 6.36029 85.1653 6.82422C84.4048 7.28785 83.8047 7.93119 83.3674 8.75684C82.9321 9.58308 82.7141 10.5341 82.7141 11.6074C82.7142 12.6805 82.9291 13.6309 83.3674 14.457C83.8017 15.2827 84.4018 15.926 85.1653 16.3896C85.9266 16.8537 86.8095 17.085 87.8059 17.085C89.3275 17.0849 90.5576 16.5731 91.4954 15.5449L91.554 15.4814H91.5481C92.4476 14.4632 92.8966 13.1715 92.8967 11.6074C92.8967 10.5344 92.6881 9.58403 92.262 8.75781C91.8359 7.93186 91.2425 7.28801 90.4817 6.82422C89.7203 6.36027 88.8019 6.12893 87.8059 6.12891Z" fill="white" stroke="white" stroke-width="0.0755396"/>
<path d="M87.1358 2.32812C88.4525 2.32812 89.6203 2.59961 90.6446 3.14433L90.7428 3.19796C91.4552 3.5922 92.064 4.0857 92.5747 4.67831L92.6411 4.75536V2.70031H96.653V20.5111H92.6381V18.4866L92.5716 18.5634C92.0859 19.1257 91.505 19.5978 90.8274 19.977L90.7617 20.0135C89.7019 20.5911 88.4918 20.8834 87.1358 20.8834C85.5555 20.8834 84.1271 20.4893 82.8482 19.6986L82.787 19.6607C81.5323 18.8697 80.5314 17.8074 79.7866 16.4703L79.7148 16.3402L79.6801 16.2744C78.9488 14.8938 78.584 13.3745 78.584 11.6436C78.584 9.91245 78.9488 8.358 79.6801 6.97645L79.7148 6.91073C80.4551 5.53705 81.4598 4.43538 82.7273 3.61101L82.7878 3.57188C84.0825 2.74382 85.5306 2.32812 87.1358 2.32812ZM87.8059 6.1289C86.8095 6.1289 85.9272 6.36035 85.1657 6.82432C84.4285 7.27347 83.843 7.89146 83.4095 8.6804L83.3679 8.7573C82.9328 9.58347 82.7145 10.5339 82.7145 11.6073C82.7145 12.6471 82.9162 13.5714 83.3271 14.3795L83.3679 14.4573C83.8023 15.2831 84.402 15.9267 85.1657 16.3903C85.9272 16.8543 86.8095 17.0857 87.8059 17.0857C89.328 17.0857 90.5578 16.5737 91.496 15.5453L91.5534 15.4821H91.5496C92.4485 14.4639 92.8972 13.1713 92.8972 11.6073C92.8972 10.5341 92.688 9.58385 92.2627 8.75768C91.8366 7.93173 91.2429 7.28798 90.4822 6.82432C89.7208 6.3602 88.8022 6.1289 87.8059 6.1289Z" fill="white" stroke="white" stroke-width="0.0755396"/>
<path d="M5.77246 5.50293C5.93496 5.09898 6.50251 5.09892 6.66504 5.50293L9.62988 12.8535C9.84943 13.3955 9.84952 14.002 9.62988 14.5439L7.52246 19.7725C7.43505 19.9904 7.28427 20.1769 7.08984 20.3086C6.89546 20.4402 6.66638 20.5114 6.43164 20.5117H0.701172C0.230068 20.5116 -0.0901742 20.0358 0.0869141 19.5977L3.35352 11.5L5.77246 5.50293Z" fill="white" stroke="white" stroke-width="0.0755396"/>
<path d="M5.77217 5.5033C5.93201 5.10551 6.48511 5.09924 6.65726 5.48464L6.66512 5.5033L9.62982 12.8534C9.84247 13.3779 9.84962 13.9633 9.64984 14.4928L9.62982 14.5438V14.5439L7.52257 19.7727V19.7728C7.43517 19.9907 7.28457 20.1775 7.09015 20.3092C6.89572 20.4408 6.66636 20.5113 6.43155 20.5116H0.701423C0.23761 20.5116 -0.0798072 20.0512 0.0794302 19.6188L0.0873618 19.5982L3.354 11.5008V11.5008L5.77224 5.50337L5.77217 5.5033Z" fill="white" stroke="white" stroke-width="0.0755396"/>
<path d="M8.98511 0.0380859H14.7117C14.9465 0.0383146 15.1764 0.108563 15.3708 0.240234C15.5652 0.37188 15.7161 0.558493 15.8035 0.776367L20.6726 12.8564C20.8923 13.3985 20.8924 14.0049 20.6726 14.5469L20.6521 14.5986H20.655L18.5681 19.7725C18.4808 19.9902 18.3307 20.177 18.1365 20.3086C17.942 20.4402 17.7121 20.5115 17.4773 20.5117H11.7507C11.2794 20.5117 10.9593 20.0359 11.1365 19.5977L13.1619 14.5752C13.3889 14.015 13.3889 13.3883 13.1619 12.8281L8.37085 0.951172C8.19375 0.512976 8.51672 0.0380859 8.98511 0.0380859Z" fill="white" stroke="white" stroke-width="0.0755396"/>
<path d="M8.98482 0.0380859H14.7119C14.9391 0.0383275 15.1613 0.10431 15.3518 0.22807C15.5423 0.35183 15.6929 0.528078 15.7855 0.735543L15.8029 0.776863L15.803 0.776938L20.6727 12.8565C20.8924 13.3986 20.8924 14.0049 20.6727 14.547L20.6516 14.5989H20.6549L18.5684 19.7729L18.5684 19.7729C18.481 19.9909 18.3304 20.1777 18.1359 20.3093C17.9415 20.441 17.7122 20.5115 17.4774 20.5117H11.7503C11.2864 20.5117 10.969 20.0513 11.1283 19.6189L11.1363 19.5984V19.5983L13.1619 14.5753C13.3817 14.0332 13.3891 13.4282 13.1826 12.8809L13.1619 12.8282L8.37076 0.95151V0.951435C8.19369 0.513305 8.51647 0.0381615 8.98482 0.0380859Z" fill="white" stroke="white" stroke-width="0.0755396"/>
</svg>
